<svg width="151" height="32" viewBox="0 0 151 32" fill="none" xmlns="http://www.w3.org/2000/svg">
<path d="M76.9661 4.36364C75.7516 4.36364 74.7671 5.34047 74.7671 6.54545V10.1818H81.3642L79.8982 14.5455H74.7671V32H70.369V6.54545C70.369 2.9305 73.3227 0 76.9661 0H82.0972L80.6312 4.36364H76.9661Z" fill="#e5e5e5"/>
<path fill-rule="evenodd" clip-rule="evenodd" d="M35.1846 1.45455H46.1797C51.0377 1.45455 54.9758 5.36188 54.9758 10.1818C54.9758 12.6196 53.9684 14.824 52.3441 16.4074C54.3929 18.0053 55.7088 20.4865 55.7088 23.2727C55.7088 28.0927 51.7707 32 46.9127 32H35.1846V1.45455ZM39.5826 5.81818H46.1797C48.6087 5.81818 50.5778 7.77185 50.5778 10.1818C50.5778 12.5918 48.6087 14.5455 46.1797 14.5455H39.5826V5.81818ZM39.5826 18.9091V27.6364H46.9127C49.3417 27.6364 51.3108 25.6827 51.3108 23.2727C51.3108 20.8628 49.3417 18.9091 46.9127 18.9091H39.5826Z" fill="#e5e5e5"/>
<path d="M64.505 1.45455H60.1069V5.81818H64.505V1.45455Z" fill="#e5e5e5"/>
<path d="M64.505 10.1818H60.1069V32H64.505V10.1818Z" fill="#e5e5e5"/>
<path d="M85.0292 10.1818V32H89.4273V14.5455H95.2914L96.7574 10.1818H85.0292Z" fill="#e5e5e5"/>
<path fill-rule="evenodd" clip-rule="evenodd" d="M117.282 20.9091C117.282 27.0344 113.748 32 107.386 32C101.025 32 97.4904 27.0344 97.4904 20.9091C97.4904 14.7838 101.025 9.81818 107.386 9.81818C113.748 9.81818 117.282 14.7838 117.282 20.9091ZM112.884 20.9091C112.884 23.1794 112.227 24.8985 111.335 25.9649C110.519 26.9398 109.302 27.6364 107.386 27.6364C105.47 27.6364 104.253 26.9398 103.437 25.9649C102.545 24.8985 101.888 23.1794 101.888 20.9091C101.888 18.6388 102.545 16.9197 103.437 15.8533C104.253 14.8783 105.47 14.1818 107.386 14.1818C109.302 14.1818 110.519 14.8783 111.335 15.8533C112.227 16.9197 112.884 18.6388 112.884 20.9091Z" fill="#e5e5e5"/>
<path d="M133.411 16.8163C133.388 16.5073 133.302 16.2062 133.158 15.9309C133.001 15.5973 132.795 15.2883 132.548 15.0137C132.029 14.4497 131.365 14.0371 130.628 13.8203C130.234 13.7051 129.828 13.6338 129.418 13.6078C128.968 13.5816 128.517 13.5922 128.069 13.6397C127.297 13.6965 126.555 13.9556 125.917 14.3904C125.7 14.5561 125.519 14.7632 125.385 14.9996C125.272 15.2033 125.2 15.4271 125.174 15.6582C125.176 15.6806 125.176 15.7031 125.174 15.7255V15.8105C125.171 15.8778 125.171 15.9452 125.174 16.0124C125.184 16.1213 125.208 16.2284 125.246 16.3311C125.332 16.547 125.465 16.7416 125.635 16.9013C126.251 17.432 126.968 17.8353 127.744 18.0876C128.19 18.247 128.661 18.3851 129.147 18.5126L129.504 18.6011L129.896 18.6932C130.178 18.7534 130.46 18.8172 130.746 18.888C131.313 19.0261 131.888 19.1819 132.48 19.3696C133.106 19.5573 133.716 19.7942 134.304 20.0779C134.995 20.412 135.628 20.8544 136.177 21.3882C136.799 22.0036 137.259 22.7613 137.516 23.5945C137.64 23.984 137.723 24.3851 137.766 24.7915C137.811 25.1877 137.818 25.5873 137.787 25.9849C137.714 26.8195 137.461 27.6287 137.045 28.3576C136.644 29.054 136.115 29.6691 135.485 30.1708C134.896 30.6344 134.24 31.008 133.54 31.2793C132.283 31.74 130.954 31.9797 129.614 31.9876C128.267 32.0529 126.92 31.8605 125.646 31.4209C124.285 30.9327 123.072 30.1074 122.123 29.0234C121.655 28.4826 121.253 27.8882 120.927 27.2527C120.596 26.5876 120.356 25.8813 120.214 25.1527L124.329 24.5117C124.371 24.8588 124.465 25.1977 124.607 25.5175C124.832 26.0379 125.161 26.5076 125.575 26.8978C125.988 27.288 126.477 27.5907 127.012 27.7875C127.813 28.073 128.661 28.1994 129.511 28.1593C130.369 28.1565 131.218 27.9844 132.009 27.6529C132.617 27.415 133.121 26.9741 133.436 26.4063C133.555 26.1782 133.626 25.9291 133.647 25.6733C133.655 25.5282 133.655 25.3828 133.647 25.2377C133.635 25.1011 133.61 24.966 133.572 24.834C133.51 24.6176 133.397 24.4187 133.244 24.2532C133.014 24.0158 132.746 23.8173 132.451 23.6653C131.61 23.24 130.72 22.9188 129.8 22.7091L129.047 22.525L128.633 22.4329L128.201 22.3338C127.619 22.1956 127.034 22.0327 126.441 21.8344C125.824 21.6426 125.222 21.4058 124.639 21.1261C123.978 20.8044 123.366 20.3933 122.819 19.9044C122.165 19.3217 121.66 18.5918 121.349 17.776C121.195 17.3673 121.092 16.9416 121.042 16.5082C121.015 16.305 121.001 16.1004 120.999 15.8955V15.5697C120.999 15.4493 120.999 15.3395 121.027 15.2156C121.125 14.3626 121.424 13.5446 121.902 12.8287C122.359 12.1421 122.956 11.5583 123.654 11.1147C124.88 10.3775 126.27 9.95181 127.701 9.87517C128.349 9.81583 129 9.80281 129.65 9.83622C130.337 9.8757 131.018 9.98849 131.681 10.1726C133.074 10.5473 134.348 11.2662 135.385 12.2621C135.908 12.7674 136.365 13.3361 136.745 13.9548C137.158 14.6245 137.458 15.3566 137.634 16.1222L133.411 16.8163Z" fill="#e5e5e5"/>
<path d="M141.471 25.4545V5.81818H145.869V10.1818H151V14.5455H145.869V25.4545C145.869 26.6595 146.854 27.6364 148.068 27.6364H151V32H148.068C144.425 32 141.471 29.0695 141.471 25.4545Z" fill="#e5e5e5"/>
<g clip-path="url(#clip0_619_3981)">
<path d="M14.6602 32H0L21.9903 10.1818H29.3204L14.6602 32Z" fill="url(#paint0_linear_619_3981)"/>
</g>
<defs>
<linearGradient id="paint0_linear_619_3981" x1="14.6602" y1="10.1818" x2="14.6602" y2="32" gradientUnits="userSpaceOnUse">
<stop stop-color="#7AEDCF"/>
<stop offset="0.201333" stop-color="#68CEFA"/>
<stop offset="0.403244" stop-color="#689CF8"/>
<stop offset="0.602076" stop-color="#AC57C0"/>
<stop offset="0.801867" stop-color="#E65659"/>
<stop offset="1" stop-color="#F2C241"/>
</linearGradient>
<clipPath id="clip0_619_3981">
<rect width="29.3204" height="21.8182" fill="white" transform="translate(0 10.1818)"/>
</clipPath>
</defs>
</svg>
