<svg width="127" height="32" viewBox="0 0 127 32" fill="none" xmlns="http://www.w3.org/2000/svg">
<path fill-rule="evenodd" clip-rule="evenodd" d="M1.96567 15.4518L0 12.3061L19.6939 0L21.6596 3.14573L10.959 9.83221H8.33004V11.4749L1.96567 15.4518ZM8.33004 12.8533L2.58508 16.4432L4.55075 19.5889L12.7628 14.4574H8.33004V12.8533ZM14.9687 14.4574L10.104 17.4972H17.1039L21.9686 14.4574H14.9687ZM23.6737 13.3919V9.83221H22.3706L24.8641 8.27408L26.8298 11.4198L23.6737 13.3919ZM9.70201 22.1224H8.33004V18.6057L5.17023 20.5802L7.1359 23.7259L9.70201 22.1224ZM11.9078 22.1224H18.9077L9.72098 27.863L7.75531 24.7172L11.9078 22.1224ZM23.6737 19.1443V17.4972H19.3098L27.4492 12.4111L29.4149 15.5568L23.6737 19.1443ZM21.1136 22.1224H23.6737V20.5227L30.0344 16.5482L32 19.6939L12.3061 32L10.3405 28.8543L21.1136 22.1224ZM20.1647 9.83221H13.1648L22.279 4.13704L24.2447 7.28277L20.1647 9.83221Z" fill="#e5e5e5"/>
<path fill-rule="evenodd" clip-rule="evenodd" d="M92.7969 4.55896C92.343 4.17844 91.7423 3.98682 90.9949 3.98682C90.2474 3.98682 89.6685 4.17844 89.205 4.55896C88.743 4.94085 88.5106 5.44777 88.5106 6.08107C88.5106 6.71437 88.7416 7.24575 89.205 7.62628C89.6671 8.00816 90.2637 8.19843 90.9949 8.19843C91.726 8.19843 92.3417 8.00816 92.7969 7.62628C93.2509 7.24575 93.4792 6.72932 93.4792 6.08107C93.4792 5.43282 93.2522 4.94085 92.7969 4.55896ZM50.7679 10.3294C49.7378 9.72058 48.5405 9.41615 47.1774 9.41615C45.8945 9.41615 44.7311 9.7165 43.6833 10.3172C42.6369 10.9179 41.7685 11.7659 41.0781 12.8613L41.0414 12.9224V9.78173H36.9766V27.6502H41.0414V20.4732L41.0574 20.5004C41.068 20.5185 41.0785 20.5366 41.0903 20.5547C41.7875 21.6501 42.6518 22.4981 43.6833 23.0988C44.7135 23.6995 45.8782 23.9998 47.1774 23.9998C48.5405 23.9998 49.7378 23.6954 50.7679 23.0866C51.7981 22.4777 52.6053 21.6256 53.1897 20.5302C53.7741 19.4349 54.0663 18.1655 54.0663 16.7209C54.0663 15.2763 53.7741 13.9825 53.1897 12.8871C52.6053 11.7917 51.7981 10.9396 50.7679 10.3308V10.3294ZM49.4537 18.8614C49.1208 19.4784 48.6628 19.9608 48.0784 20.3101C47.494 20.6593 46.82 20.8333 46.0576 20.8333C45.2951 20.8333 44.5721 20.6593 43.8913 20.3101C43.209 19.9608 42.6138 19.4784 42.1014 18.8614C41.5904 18.2444 41.1882 17.5309 40.896 16.7195C41.1882 15.9082 41.5891 15.1906 42.1014 14.5655C42.6124 13.9403 43.209 13.4538 43.8913 13.1045C44.5735 12.7553 45.2951 12.5813 46.0576 12.5813C46.82 12.5813 47.494 12.7553 48.0784 13.1045C48.6628 13.4538 49.1208 13.9403 49.4537 14.5655C49.7867 15.1906 49.9525 15.9082 49.9525 16.7195C49.9525 17.5309 49.7853 18.2457 49.4537 18.8614ZM69.1351 9.78169L69.1349 9.78305H69.1337L69.1351 9.78169ZM69.1349 9.78305L68.7845 12.8476C68.0887 11.7591 67.2189 10.9151 66.1765 10.3185C65.1301 9.71782 63.9572 9.41747 62.6594 9.41747C61.3615 9.41747 60.1193 9.72189 59.0811 10.3307C58.0428 10.9396 57.2341 11.7917 56.6593 12.8871C56.083 13.9824 55.7949 15.2599 55.7949 16.7209C55.7949 18.1818 56.083 19.4348 56.6593 20.5302C57.2355 21.6256 58.0428 22.4777 59.0811 23.0865C60.1193 23.6954 61.3126 23.9998 62.6594 23.9998C64.0061 23.9998 65.1301 23.6994 66.1765 23.0987C67.223 22.4994 68.09 21.6514 68.779 20.5574L69.1337 23.6342H73.3454L72.5422 16.7209L73.3454 9.78305H69.1349ZM65.9577 20.31C65.2836 20.6593 64.5661 20.8333 63.8037 20.8333C63.0412 20.8333 62.3672 20.6593 61.7828 20.31C61.1984 19.9608 60.7404 19.4783 60.4075 18.8613C60.0745 18.2443 59.9087 17.5308 59.9087 16.7195C59.9087 15.9082 60.0745 15.1906 60.4075 14.5654C60.7404 13.9403 61.1984 13.4538 61.7828 13.1045C62.3672 12.7552 63.0399 12.5813 63.8037 12.5813C64.5674 12.5813 65.285 12.7552 65.9577 13.1045C66.6304 13.4538 67.227 13.9403 67.7475 14.5654C68.2667 15.1906 68.673 15.9082 68.9652 16.7195C68.673 17.5308 68.2667 18.2457 67.7475 18.8613C67.2284 19.4783 66.6318 19.9608 65.9577 20.31ZM82.8408 9.9883C83.5217 9.60778 84.333 9.41615 85.2748 9.41615V9.41887C85.5833 9.41887 85.8959 9.43926 86.2125 9.48003C86.5292 9.51944 86.8255 9.57244 87.1013 9.63768V13.1426C86.68 13.0461 86.2574 12.9727 85.8361 12.9238C85.4134 12.8749 85.0166 12.8504 84.6429 12.8504C83.8315 12.8504 83.1004 13.0203 82.4521 13.3614C81.8025 13.7012 81.2915 14.2298 80.9178 14.9433C80.5441 15.6568 80.3579 16.5578 80.3579 17.645V23.6342H76.293V14.3345L75.4165 9.78173H79.5302L80.1472 13.5027C80.3959 12.7702 80.7221 12.1179 81.1244 11.5457C81.5864 10.8893 82.1586 10.3702 82.8408 9.9883ZM88.9755 23.6329V9.63494L90.9964 10.025L93.0417 9.63494V23.6329H88.9755ZM104.653 20.7843C103.55 20.7843 102.775 20.5696 102.328 20.1388C101.881 19.7093 101.658 18.9578 101.658 17.8869V12.8476H107.793V9.7803H101.658V6.1286H99.3204L97.5917 10.0969L94.6943 11.0469V12.8476H97.5917V18.4712C97.5917 19.5748 97.8064 20.541 98.2373 21.3687C98.6667 22.1963 99.3326 22.8419 100.234 23.3039C101.135 23.766 102.306 23.997 103.751 23.997C104.578 23.997 105.382 23.9114 106.16 23.7415C106.939 23.5717 107.564 23.3882 108.034 23.1938V20.0287C107.548 20.2719 107.037 20.4595 106.5 20.5886C105.965 20.7191 105.348 20.7829 104.65 20.7829L104.653 20.7843ZM117.667 20.1959L122.229 9.78173L122.227 9.77901H126.536L119.623 24.2635C119.201 25.1727 118.69 25.9024 118.09 26.4542C117.489 27.006 116.835 27.4042 116.13 27.6474C115.425 27.8907 114.689 28.013 113.927 28.013C113.018 28.013 112.198 27.8989 111.469 27.6719C110.737 27.4449 110.047 27.112 109.399 26.6744V23.7525C110.081 24.1914 110.729 24.5081 111.346 24.7024C111.963 24.8968 112.646 24.9946 113.392 24.9946C114.058 24.9946 114.65 24.8451 115.169 24.5448C115.688 24.2444 116.118 23.7131 116.459 22.9507L116.545 22.7563H114.804L108.693 9.78173H113.173L117.667 20.1959Z" fill="#e5e5e5"/>
</svg>
