<svg width="36" height="49" viewBox="0 0 36 49" fill="none" xmlns="http://www.w3.org/2000/svg">
<path d="M18.075 0.00274622C8.46348 -0.169707 0.242233 7.80249 0.00559711 17.5461C-0.155241 24.1593 3.20203 29.987 8.31374 33.2486C8.55777 33.4042 8.87945 33.3124 9.00885 33.0518L12.9947 24.969C13.5807 23.7806 13.492 22.371 12.7802 21.2557C12.172 20.3034 11.8226 19.1638 11.8355 17.9416C11.867 14.8018 14.3313 12.1813 17.4242 12.0107C20.9978 11.8158 23.928 14.8356 23.6526 18.4758C23.4326 21.3944 21.1106 23.7487 18.2321 23.9831C18.2118 23.9831 18.1933 23.9868 18.173 23.9868C16.8641 24.0805 15.6975 24.8528 15.1096 26.0412L11.1219 34.1259C10.9944 34.3865 11.1145 34.7032 11.3826 34.8063C13.3922 35.5899 15.5792 36.0135 17.8642 35.9985C27.5792 35.9367 35.4936 27.867 35.5028 18.0184C35.5158 8.17926 27.7364 0.177074 18.075 0.00274622Z" fill="#e5e5e5"/>
<path d="M5.91774 48.0014C9.18602 48.0014 11.8355 45.315 11.8355 42.0012C11.8355 38.6873 9.18602 36.0009 5.91774 36.0009C2.64946 36.0009 0 38.6873 0 42.0012C0 45.315 2.64946 48.0014 5.91774 48.0014Z" fill="#e5e5e5"/>
</svg>
