<svg xmlns="http://www.w3.org/2000/svg" id="Layer_1" data-name="Layer 1" viewBox="528.29 433.9 863.42 212.19">
  <defs>
    <style>
      .cls-1 {
        fill: #e5e5e5;
        stroke: #b3b3b3;
        stroke-miterlimit: 10;
        stroke-width: .5px;
      }
    </style>
  </defs>
  <path class="cls-1" d="M613.29,620.64l-33.76-64h-27.28v64h-23.71v-161.2h66.38c20.86,0,37.93,16.95,37.93,37.93v21.33c0,17.3-11.61,31.86-27.37,36.43l34.48,65.5h-26.67ZM552.24,483.15v49.78h42.67c7.94,0,14.22-6.52,14.22-14.22v-21.33c0-7.71-6.28-14.22-14.22-14.22h-42.67Z"/>
  <path class="cls-1" d="M828.86,443.92c-6.79,7.75-13.58,15.86-20.2,24.16-6.56-5.39-14.94-8.63-24.08-8.63h-28.46c-20.85,0-37.91,16.93-37.91,37.91v85.34c0,1.87.13,3.69.4,5.47l-.15.15.04.25c.21,1.7.31,4.53.38,6.41.04,1.3.06,1.82.1,2.07-1.8,6.9-5.32,14.34-8.42,20.89l-.06.13c-.54,1.09-1.11,2.28-1.76,3.73l-10.56,24.04,13.35-12.99.57-.59c.25-.23.48-.46.75-.71,4.86-4.95,10.75-12.01,17.58-21,6.77,6.27,15.8,10.08,25.69,10.08h28.46c20.85,0,37.93-16.95,37.93-37.93v-85.34c0-4.51-.8-8.82-2.24-12.85,1.36-5.09,3.02-10.79,5.32-16.24.94-2.22,4.21-11.59,9.22-26.34l2.62-7.78-8.57,9.77ZM741.9,561.39v-64.03c0-7.69,6.29-14.21,14.21-14.21h28.46c3.46,0,6.6,1.24,9.05,3.25-3.39,4.65-6.98,9.93-9.47,13.6l-.31.46c-.38.61-.65,1.01-.73,1.13-1.72,2.45-3.44,4.9-5.2,7.36l-.27.38c-8.74,12.43-17.81,25.27-25.38,39.17-2.35,4.38-4.95,8.91-8.53,11.84-.46.38-1.05.73-1.82,1.05ZM798.8,582.7c0,7.71-6.29,14.23-14.23,14.23h-28.46c-4.76,0-8.93-2.35-11.46-5.89,12.72-18.07,24.65-36.51,33.83-50.86.73-1.11,1.45-2.28,2.18-3.5l.78-1.3c4.67-7.71,9.49-15.7,17.37-18.8v66.12Z"/>
  <path class="cls-1" d="M1012.15,532.93v49.78c0,20.98-17.07,37.93-37.93,37.93h-28.45c-20.86,0-37.93-16.95-37.93-37.93v-85.34c0-20.98,17.07-37.93,37.93-37.93h28.45c20.86,0,37.93,16.95,37.93,37.93h-23.71c0-7.7-6.28-14.22-14.22-14.22h-28.45c-7.94,0-14.22,6.52-14.22,14.22v85.34c0,7.7,6.28,14.22,14.22,14.22h28.45c7.94,0,14.22-6.52,14.22-14.22v-26.08h-28.45v-23.7h52.15Z"/>
  <path class="cls-1" d="M1178.1,459.44h23.71v123.27c0,20.98-17.07,37.93-37.93,37.93h-28.45c-20.86,0-37.93-16.95-37.93-37.93v-123.27h23.71v123.27c0,7.7,6.28,14.22,14.22,14.22h28.45c7.94,0,14.22-6.52,14.22-14.22v-123.27Z"/>
  <path class="cls-1" d="M1287.15,620.64v-161.2h104.31v23.71h-80.6v40.3h71.12v23.71h-71.12v49.78h80.6v23.71h-104.31Z"/>
</svg>