<svg width="145" height="40" viewBox="0 0 145 40" fill="none" xmlns="http://www.w3.org/2000/svg">
<path d="M45.9344 12.9863H47.7709L56.8065 34.4411H54.3201L51.5248 27.9391H41.9691L39.0601 34.4411H36.5411L45.9344 12.9863ZM50.5172 25.6299L46.877 16.6549L42.9767 25.6299H50.5172Z" fill="#262626"/>
<path d="M68.1678 17.9429L61.0335 34.4352H59.1645L52.3877 17.9429H54.9391L60.1396 31.2744L65.6326 17.9429H68.1678Z" fill="#262626"/>
<path d="M80.8762 33.1417C79.5274 34.2225 77.886 34.7631 75.9521 34.7631C74.3757 34.7631 72.9943 34.4027 71.7755 33.6821C70.5567 32.9615 69.614 31.9624 68.9478 30.6686C68.2815 29.3747 67.9402 27.9171 67.9402 26.263C67.9402 24.4778 68.2652 22.9383 68.9316 21.6444C69.5815 20.3506 70.5079 19.3516 71.6943 18.6474C72.8806 17.9594 74.2619 17.5991 75.8221 17.5991C77.2846 17.5991 78.6335 17.9594 79.8524 18.6637C81.0713 19.3679 82.0463 20.3834 82.7776 21.6936C83.4927 23.0038 83.8665 24.5106 83.8665 26.2302L70.3129 26.263C70.3129 27.5241 70.5567 28.6214 71.0604 29.5876C71.5479 30.5376 72.2305 31.2746 73.0919 31.7822C73.9531 32.29 74.912 32.552 75.9683 32.552C77.3172 32.552 78.4386 32.2081 79.3161 31.5366C80.1937 30.8651 80.8274 29.9316 81.1849 28.736H83.5414C83.1026 30.5868 82.2088 32.0607 80.8762 33.1417ZM81.3313 24.5269C81.0875 23.0693 80.4862 21.9393 79.5111 21.104C78.536 20.2688 77.301 19.8593 75.8221 19.8593C74.4082 19.8593 73.2219 20.2851 72.2793 21.1204C71.3368 21.972 70.7354 23.1021 70.5079 24.5269H81.3313Z" fill="#262626"/>
<path d="M85.7179 17.9448H88.0742V21.1385C88.5456 20.0575 89.2607 19.2059 90.2195 18.5671C91.1782 17.9448 92.3322 17.6172 93.681 17.6172C95.7286 17.6172 97.3213 18.3051 98.4589 19.6809C99.5965 21.0566 100.165 23.0055 100.165 25.5114V34.4208H97.8088V25.5114C97.8088 23.546 97.4026 22.1047 96.6062 21.1876C95.7937 20.2704 94.6236 19.8283 93.0797 19.8283C91.6008 19.8283 90.382 20.3851 89.4557 21.4824C88.513 22.5961 88.058 24.1029 88.058 26.0027L88.0906 34.4208H85.7341V17.9448H85.7179Z" fill="#262626"/>
<path d="M104.001 34.2101C103.757 34.0628 103.595 33.8334 103.514 33.5386C103.432 33.2439 103.4 32.8016 103.4 32.2284V20.158H101.076V17.947H103.4V12.9682H105.756V17.947H109.689V20.158H105.756V32.2284H111.688V34.4395H105.188C104.651 34.4395 104.245 34.374 104.001 34.2101Z" fill="#262626"/>
<path d="M125.208 34.1241C124.996 33.9112 124.899 33.4854 124.899 32.8466V31.2579C124.412 32.3389 123.68 33.1905 122.738 33.8292C121.795 34.4516 120.657 34.7792 119.357 34.7792C117.294 34.7792 115.701 34.0586 114.596 32.6009C113.491 31.1433 112.938 29.0797 112.938 26.3938V17.9429H115.295V26.361C115.295 28.5065 115.668 30.0788 116.432 31.0614C117.196 32.0441 118.334 32.5355 119.862 32.5355C121.373 32.5355 122.575 31.9786 123.502 30.8813C124.428 29.7676 124.883 28.2772 124.883 26.361V17.9429H127.239V32.2243H128.523V34.4352H126.557C125.858 34.4352 125.403 34.337 125.208 34.1241Z" fill="#262626"/>
<path d="M134.048 32.0477C134.763 32.408 135.722 32.5883 136.908 32.5883C137.916 32.5883 138.712 32.408 139.264 32.0477C139.817 31.6875 140.11 31.0815 140.11 30.2134C140.11 29.4601 139.8 28.8704 139.183 28.4611C138.566 28.0516 137.59 27.675 136.225 27.331C134.373 26.8724 132.878 26.2665 131.724 25.4967C130.57 24.7269 130.001 23.6296 130.001 22.1883C130.001 20.5997 130.554 19.4533 131.643 18.749C132.747 18.0285 134.08 17.6681 135.641 17.6354C137.054 17.6354 138.387 18.0285 139.622 18.7981C140.857 19.5843 141.703 20.8781 142.158 22.6961H139.8C139.541 21.7462 139.07 21.0255 138.371 20.5506C137.673 20.0757 136.779 19.83 135.706 19.83C134.666 19.83 133.837 20.0102 133.202 20.3868C132.569 20.7635 132.244 21.3531 132.244 22.172C132.26 23.5641 133.772 24.5958 136.763 25.3001C138.534 25.7424 139.899 26.3156 140.874 27.0198C141.848 27.7404 142.336 28.805 142.336 30.2134C142.336 31.7367 141.832 32.8666 140.809 33.6201C139.784 34.3734 138.534 34.7501 137.054 34.7501C133.089 34.7501 130.83 33.1943 130.246 30.0988H132.634C132.862 31.0487 133.317 31.6875 134.048 32.0477Z" fill="#262626"/>
<path d="M31.5369 34.4388H23.915C23.4762 34.4388 23.07 34.1439 22.9236 33.7345C21.2823 29.0341 19.6572 24.3337 18.0158 19.666C17.4795 18.0119 16.9107 16.3414 16.3581 14.6544C16.2444 14.3105 16.1306 13.9502 16.0006 13.6062C15.9519 13.5079 15.9193 13.4097 15.8868 13.3114C15.2856 11.559 14.7005 9.83935 14.0829 8.11969C13.8554 7.46457 14.1155 6.74396 14.7168 6.40002L20.5672 3.00983L21.6235 5.56476L21.7535 5.89231C21.7698 5.90869 21.7698 5.92507 21.7698 5.94145L22.6149 8.43087L27.1978 21.7951H27.1815C28.6441 26.0042 30.0905 30.2133 31.5369 34.4388Z" fill="url(#paint0_linear_6_2072)"/>
<path d="M22.6461 8.42765C22.6298 8.39489 22.6136 8.37852 22.5811 8.36214C21.9148 7.52687 20.6634 7.65789 19.7696 8.08371C18.8108 8.55867 18.112 9.39393 17.7707 10.4094L16.3569 14.6512L10.3601 32.5521C9.79132 34.2717 8.18243 35.4182 6.39479 35.4182C4.10336 35.4182 2.39697 33.5347 2.39697 31.3893C2.39697 30.9635 2.46198 30.5212 2.60824 30.0791L12.0827 2.02394H20.4359L21.6386 5.56154L21.7686 5.88909C21.7848 5.90547 21.7848 5.92185 21.7848 5.93823L22.6461 8.42765Z" fill="url(#paint1_linear_6_2072)"/>
<defs>
<linearGradient id="paint0_linear_6_2072" x1="11.3571" y1="14.7703" x2="35.5008" y2="23.4901" gradientUnits="userSpaceOnUse">
<stop stop-color="#0E0151"/>
<stop offset="0.0612661" stop-color="#19016F"/>
<stop offset="0.1521" stop-color="#270195"/>
<stop offset="0.25" stop-color="#3300B6"/>
<stop offset="0.3547" stop-color="#3C00D1"/>
<stop offset="0.4689" stop-color="#4400E5"/>
<stop offset="0.5972" stop-color="#4900F4"/>
<stop offset="0.7513" stop-color="#4C00FC"/>
<stop offset="1" stop-color="#4D00FF"/>
</linearGradient>
<linearGradient id="paint1_linear_6_2072" x1="1.06107" y1="32.6221" x2="21.403" y2="2.69692" gradientUnits="userSpaceOnUse">
<stop stop-color="#0E0151"/>
<stop offset="0.1011" stop-color="#1B0173"/>
<stop offset="0.2455" stop-color="#2C019E"/>
<stop offset="0.3926" stop-color="#3900C1"/>
<stop offset="0.5408" stop-color="#4400DC"/>
<stop offset="0.6904" stop-color="#4B00F0"/>
<stop offset="0.8423" stop-color="#5000FB"/>
<stop offset="1" stop-color="#5100FF"/>
</linearGradient>
</defs>
</svg>
